# xmcd CD database file
#
# Track frame offsets:
#	150
#	19362
#	43972
#	60700
#	78440
#	94717
#	114260
#	136017
#	161747
#
# Disc length: 2411 seconds
#
# Revision: 0
# Processed by: cddbd v1.5PL3 Copyright (c) Steve Scherf et al.
# Submitted via: CDex 1.50beta10
#
DISCID=70096909
DTITLE=ソウル・オクトパス - オオサカ・ファンキー・タウン
DYEAR=1900
DGENRE=Blues
TTITLE0=道頓堀ブルース〜もうかりまっか
TTITLE1=オオサカ・サンセット〜港の夕陽が好きやった
TTITLE2=夕陽が沈む前に
TTITLE3=本当の愛やから
TTITLE4=シーサイドバウンド
TTITLE5=月のあかりにつつまれる広場の物語
TTITLE6=陽だまりの中で
TTITLE7=遠くへ行きたい
TTITLE8=マンハッタンとオオサカ
EXTD=
EXTT0=
EXTT1=
EXTT2=
EXTT3=
EXTT4=
EXTT5=
EXTT6=
EXTT7=
EXTT8=
PLAYORDER=
